<?xml version="1.0" standalone="no"?>
<!DOCTYPE svg PUBLIC "-//W3C//DTD SVG 20010904//EN"
 "http://www.w3.org/TR/2001/REC-SVG-20010904/DTD/svg10.dtd">
<svg version="1.0" xmlns="http://www.w3.org/2000/svg"
 width="50.000000pt" height="32.000000pt" viewBox="0 0 50.000000 32.000000"
 preserveAspectRatio="xMidYMid meet">

<g transform="translate(0.000000,32.000000) scale(0.100000,-0.100000)"
fill="#daa520" stroke="none">
<path d="M0 160 l0 -160 250 0 250 0 0 160 0 160 -96 0 c-61 0 -93 -4 -89 -10
3 -5 -2 -10 -12 -11 -10 0 -13 -3 -6 -6 18 -7 16 -23 -2 -23 -9 0 -16 10 -16
28 -2 23 -2 24 -6 5 -2 -13 -9 -23 -14 -23 -5 0 -9 10 -9 23 0 17 -2 19 -9 7
-6 -8 -8 -17 -5 -21 2 -4 0 -10 -5 -13 -5 -3 -12 5 -15 19 -4 14 -13 25 -21
25 -13 0 -13 -3 -3 -20 9 -15 10 -22 1 -31 -17 -17 -36 0 -30 27 4 24 3 24
-79 24 l-84 0 0 -160z m363 143 c3 -5 1 -17 -4 -28 -4 -11 -8 -15 -8 -8 -1 7
-8 10 -16 7 -17 -7 -18 -3 -9 20 6 17 30 22 37 9z m-81 -120 c-24 -19 -34 -16
-26 10 9 30 28 40 35 19 4 -10 1 -22 -9 -29z m-65 15 c-3 -8 -6 -5 -6 6 -1 11
2 17 5 13 3 -3 4 -12 1 -19z m-109 -59 c3 -11 2 -11 -7 1 -9 12 -11 10 -11
-12 0 -16 -4 -28 -8 -28 -5 0 -7 14 -4 30 4 31 22 36 30 9z m47 1 c0 -8 4 -21
8 -27 5 -8 4 -13 -2 -13 -6 0 -11 5 -11 10 0 6 -5 10 -11 10 -5 0 -7 -4 -4
-10 3 -5 1 -10 -4 -10 -6 0 -11 14 -11 31 0 24 4 30 18 27 9 -2 17 -10 17 -18z
m49 12 c-7 -4 -14 -18 -17 -32 -4 -21 -4 -20 -6 8 -1 24 3 32 17 32 11 0 13
-3 6 -8z m59 -45 c-6 -11 -32 23 -32 43 -1 10 6 7 18 -10 11 -13 17 -28 14
-33z m26 21 c0 -31 -1 -31 -10 -10 -5 13 -7 28 -3 33 10 16 14 9 13 -23z m31
2 c0 -16 -4 -30 -8 -30 -7 0 -9 43 -3 58 5 12 11 -4 11 -28z m22 1 c2 -17 1
-28 -4 -25 -8 5 -12 54 -4 54 2 0 6 -13 8 -29z m31 -22 c-6 -6 -7 3 -4 23 4
28 6 29 9 9 2 -13 0 -27 -5 -32z m57 -4 c0 -5 -9 1 -20 15 -11 14 -20 30 -20
35 0 6 9 -1 20 -15 11 -14 20 -29 20 -35z m19 23 c0 -27 -2 -29 -8 -13 -5 11
-6 26 -4 33 8 21 13 13 12 -20z"/>
</g>
</svg>
